<svg version="1.1" id="Layer_1" xmlns="http://www.w3.org/2000/svg" xmlns:xlink="http://www.w3.org/1999/xlink" x="0px" y="0px"
	 width="100%" viewBox="0 0 512 480" enable-background="new 0 0 512 480" xml:space="preserve">
<path fill="#000000" opacity="1.000000" stroke="none" 
	d="
M297.000000,481.000000 
	C198.000031,481.000000 99.500046,481.000000 1.000053,481.000000 
	C1.000035,321.000061 1.000035,161.000122 1.000018,1.000139 
	C171.666565,1.000093 342.333130,1.000093 512.999756,1.000046 
	C512.999878,160.999863 512.999878,320.999725 512.999939,480.999786 
	C441.166656,481.000000 369.333344,481.000000 297.000000,481.000000 
M50.842163,424.722015 
	C54.648502,427.856354 59.101139,428.771484 63.914516,428.738373 
	C98.217331,428.502472 132.520248,428.191956 166.823532,428.132385 
	C246.473282,427.994110 326.123260,427.977875 405.773132,427.926971 
	C422.602997,427.916199 439.432983,428.001434 456.262848,427.980682 
	C467.383759,427.966980 473.508545,422.595306 475.180023,411.537079 
	C475.677429,408.246307 476.169891,404.954376 476.618103,401.656647 
	C480.849396,370.525879 485.005371,339.384705 489.315948,308.264923 
	C492.621948,284.397491 496.207916,260.568848 499.508240,236.700653 
	C503.195038,210.037674 506.597229,183.335129 510.330414,156.678802 
	C511.999725,144.759552 504.264008,135.507324 493.107147,136.525604 
	C489.466400,136.857895 485.794281,136.970673 482.136383,136.973541 
	C372.829132,137.059021 263.521881,137.124054 154.214615,137.178268 
	C111.224342,137.199585 68.234024,137.164139 25.243778,137.205658 
	C13.518818,137.216980 6.966232,144.528458 8.214908,156.145020 
	C8.656125,160.249710 9.840018,164.302917 9.988576,168.404861 
	C10.308544,177.239716 12.360074,185.809830 13.507469,194.512054 
	C15.916294,212.781403 18.848997,230.981812 21.244267,249.252792 
	C22.971134,262.425262 24.719311,275.616394 26.750532,288.721161 
	C29.622404,307.249512 32.000660,325.848541 34.915771,344.370941 
	C38.221714,365.376709 40.554024,386.534241 43.475006,407.602905 
	C44.315361,413.664246 45.066944,419.917572 50.842163,424.722015 
M202.128983,71.580582 
	C199.414078,70.629051 196.610779,70.511353 193.755905,70.479469 
	C153.096619,70.025536 112.447586,71.053703 71.793266,71.279823 
	C61.752388,71.335678 55.626732,77.541176 54.711327,87.546379 
	C53.978832,95.552399 54.848061,103.526833 54.308605,111.502747 
	C53.861305,118.116104 54.677612,118.904488 61.427849,118.897591 
	C132.077484,118.825470 202.727203,118.804054 273.376740,118.682808 
	C334.863739,118.577286 396.351959,119.284676 457.837738,118.408875 
	C459.953857,118.378738 462.450165,119.005371 463.455414,116.370445 
	C464.359100,114.001839 463.499329,111.709480 462.011993,109.812752 
	C458.072571,104.788933 452.653931,103.338028 446.508636,103.395058 
	C420.023376,103.640877 393.537445,103.885750 367.051300,103.953957 
	C320.559845,104.073692 274.067749,104.004837 227.576691,104.197754 
	C222.840317,104.217415 220.211075,102.723495 218.748352,98.181610 
	C216.964767,92.643463 214.711914,87.249680 212.513519,81.853958 
	C210.637985,77.250633 207.972183,73.294083 202.128983,71.580582 
z"/>
<path fill="#000000" opacity="1.000000" stroke="none" 
	d="
M188.009933,285.041687 
	C185.794418,285.837250 183.882736,286.419250 182.387527,288.014526 
	C183.119247,290.276642 185.285858,290.612976 187.007782,291.329620 
	C195.300461,294.780762 203.582779,298.275116 212.000839,301.398224 
	C215.704178,302.772156 217.273758,304.786041 217.055847,308.765289 
	C216.778229,313.834991 216.988602,318.931458 216.988602,325.043793 
	C210.547134,322.423279 205.367310,320.318390 200.189301,318.209045 
	C186.018448,312.436340 171.871674,306.603363 157.661926,300.928070 
	C154.020950,299.473846 151.640335,297.623627 152.499954,293.222351 
	C152.812912,291.619934 152.537323,289.902222 152.526871,288.237091 
	C152.459412,277.490143 152.514954,277.625671 162.310211,273.588593 
	C177.379425,267.377838 192.363174,260.959717 207.382446,254.627838 
	C207.842575,254.433838 208.290359,254.210510 208.750610,254.016815 
	C216.379135,250.806427 216.981247,251.205124 217.139526,259.565155 
	C217.388641,272.723480 217.394028,272.736237 205.396194,277.812103 
	C199.730133,280.209198 194.038834,282.546661 188.009933,285.041687 
z"/>
<path fill="#000000" opacity="1.000000" stroke="none" 
	d="
M286.449554,233.436646 
	C275.252960,266.349335 264.224487,298.912903 253.161240,331.464630 
	C249.396225,342.542511 249.356445,342.555969 237.699905,342.678284 
	C235.241150,342.704102 232.728485,342.861298 230.388351,341.898926 
	C229.239212,339.751343 230.394791,337.929810 230.998062,336.100006 
	C239.630249,309.917236 248.192169,283.710510 257.000153,257.586853 
	C260.179718,248.156479 263.695984,238.840622 266.415527,229.257019 
	C266.978577,227.272858 267.699188,225.290009 270.202026,225.258759 
	C276.124451,225.184830 282.048492,225.235016 287.869537,225.235016 
	C288.851288,228.618835 287.076263,230.726395 286.449554,233.436646 
z"/>
<path fill="#000000" opacity="1.000000" stroke="none" 
	d="
M302.615906,253.233124 
	C309.173248,252.284698 314.179047,256.120728 319.609955,258.225403 
	C333.874237,263.753235 347.866302,269.979645 362.055023,275.709229 
	C365.496460,277.098938 366.192749,279.030975 366.766174,282.680695 
	C368.744568,295.272675 363.505157,301.174469 351.613861,304.940887 
	C336.284180,309.796448 321.633026,316.798676 306.705292,322.914551 
	C304.010376,324.018677 302.508850,323.490326 302.534119,320.337677 
	C302.536804,320.004791 302.543091,319.671570 302.533264,319.338928 
	C302.073151,303.754822 302.085083,303.784088 316.454590,297.832306 
	C322.599457,295.287109 328.689697,292.608948 334.782593,289.940613 
	C335.506836,289.623474 336.090851,288.986206 336.605011,288.598907 
	C336.751495,286.860321 335.688354,286.256470 334.626465,285.812134 
	C325.431732,281.964722 316.276733,278.010712 306.981659,274.420532 
	C303.537994,273.090424 301.799255,271.312134 302.041748,267.499451 
	C302.336609,262.862823 302.290558,258.204559 302.615906,253.233124 
z"/>
</svg>